<svg width="16" height="16" viewBox="0 0 16 16" fill="none" xmlns="http://www.w3.org/2000/svg">
<path d="M12.4167 3.99149C12.4167 1.79039 10.5855 0 8.33444 0C6.08336 0 4.25224 1.79043 4.25224 3.99149C4.25224 6.19255 6.08336 7.98299 8.33444 7.98299C10.5855 7.98299 12.4167 6.19255 12.4167 3.99149ZM5.07515 3.99149C5.07515 2.2342 6.53791 0.804048 8.33504 0.804048C10.1322 0.804048 11.5949 2.2343 11.5949 3.99149C11.5949 5.74869 10.1322 7.17894 8.33504 7.17894C6.53791 7.17894 5.07515 5.74869 5.07515 3.99149Z" fill="#F9F9F9"/>
<path d="M3.33502 11.3363L8.18099 16H8.48618L13.3322 11.3363C10.4428 9.30173 6.2236 9.30173 3.33502 11.3363ZM12.2748 11.4238L8.33425 15.1824L4.3937 11.4238C6.80522 9.94981 9.86347 9.94981 12.2748 11.4238Z" fill="#F9F9F9"/>
<path fill-rule="evenodd" clip-rule="evenodd" d="M8.33425 15.1824L12.2748 11.4238C9.86347 9.94981 6.80522 9.94981 4.3937 11.4238L8.33425 15.1824Z" fill="#F9F9F9"/>
<path fill-rule="evenodd" clip-rule="evenodd" d="M8.33504 0.804048C6.53791 0.804048 5.07515 2.2342 5.07515 3.99149C5.07515 5.74869 6.53791 7.17894 8.33504 7.17894C10.1322 7.17894 11.5949 5.74869 11.5949 3.99149C11.5949 2.2343 10.1322 0.804048 8.33504 0.804048Z" fill="#F9F9F9"/>
</svg>
